<mxfile host="drawio-plugin" modified="2022-04-14T07:20:08.374Z" agent="5.0 (X11; Linux x86_64) AppleWebKit/537.36 (KHTML, like Gecko) Chrome/89.0.4389.114 Safari/537.36" etag="tIUPoZNDN-_vYgWM-Tzi" version="15.5.4" type="embed"><diagram id="fbzm545EcICF4auStwzn" name="Components"><mxGraphModel dx="1093" dy="711" grid="1" gridSize="10" guides="1" tooltips="1" connect="1" arrows="1" fold="1" page="1" pageScale="1" pageWidth="827" pageHeight="1169" math="0" shadow="0"><root><mxCell id="0"/><mxCell id="1" parent="0"/><mxCell id="DxnIDQMmFqQm4ylsldtP-6" value="Com" style="edgeStyle=orthogonalEdgeStyle;rounded=0;orthogonalLoop=1;jettySize=auto;html=1;exitX=0.75;exitY=0;exitDx=0;exitDy=0;entryX=0.75;entryY=1;entryDx=0;entryDy=0;" parent="1" source="DxnIDQMmFqQm4ylsldtP-3" target="DxnIDQMmFqQm4ylsldtP-2" edge="1"><mxGeometry relative="1" as="geometry"/></mxCell><mxCell id="DxnIDQMmFqQm4ylsldtP-13" value="Power" style="edgeStyle=orthogonalEdgeStyle;rounded=0;orthogonalLoop=1;jettySize=auto;html=1;exitX=0.25;exitY=1;exitDx=0;exitDy=0;entryX=0.25;entryY=0;entryDx=0;entryDy=0;" parent="1" source="DxnIDQMmFqQm4ylsldtP-2" target="DxnIDQMmFqQm4ylsldtP-3" edge="1"><mxGeometry relative="1" as="geometry"/></mxCell><mxCell id="DxnIDQMmFqQm4ylsldtP-15" style="edgeStyle=orthogonalEdgeStyle;rounded=0;orthogonalLoop=1;jettySize=auto;html=1;exitX=1;exitY=0;exitDx=0;exitDy=0;entryX=0;entryY=0.5;entryDx=0;entryDy=0;startArrow=none;startFill=0;curved=1;" parent="1" source="DxnIDQMmFqQm4ylsldtP-2" target="DxnIDQMmFqQm4ylsldtP-14" edge="1"><mxGeometry relative="1" as="geometry"/></mxCell><mxCell id="DxnIDQMmFqQm4ylsldtP-2" value="Pi4" style="rounded=0;whiteSpace=wrap;html=1;" parent="1" vertex="1"><mxGeometry x="340" y="220" width="120" height="60" as="geometry"/></mxCell><mxCell id="DxnIDQMmFqQm4ylsldtP-5" style="edgeStyle=orthogonalEdgeStyle;rounded=0;orthogonalLoop=1;jettySize=auto;html=1;exitX=1;exitY=0.5;exitDx=0;exitDy=0;entryX=0;entryY=0.5;entryDx=0;entryDy=0;" parent="1" source="DxnIDQMmFqQm4ylsldtP-3" target="DxnIDQMmFqQm4ylsldtP-4" edge="1"><mxGeometry relative="1" as="geometry"/></mxCell><mxCell id="DxnIDQMmFqQm4ylsldtP-8" style="edgeStyle=orthogonalEdgeStyle;rounded=0;orthogonalLoop=1;jettySize=auto;html=1;exitX=0;exitY=0.5;exitDx=0;exitDy=0;entryX=1;entryY=0.5;entryDx=0;entryDy=0;" parent="1" source="DxnIDQMmFqQm4ylsldtP-3" target="DxnIDQMmFqQm4ylsldtP-7" edge="1"><mxGeometry relative="1" as="geometry"/></mxCell><mxCell id="DxnIDQMmFqQm4ylsldtP-3" value="Arduino (Nano)" style="rounded=0;whiteSpace=wrap;html=1;" parent="1" vertex="1"><mxGeometry x="340" y="360" width="120" height="60" as="geometry"/></mxCell><mxCell id="DxnIDQMmFqQm4ylsldtP-4" value="Voltage Sensor" style="rounded=0;whiteSpace=wrap;html=1;" parent="1" vertex="1"><mxGeometry x="540" y="360" width="120" height="60" as="geometry"/></mxCell><mxCell id="DxnIDQMmFqQm4ylsldtP-7" value="DHT11 (Temperature and humidity sensor)" style="rounded=0;whiteSpace=wrap;html=1;" parent="1" vertex="1"><mxGeometry x="130" y="360" width="120" height="60" as="geometry"/></mxCell><mxCell id="DxnIDQMmFqQm4ylsldtP-10" style="edgeStyle=orthogonalEdgeStyle;rounded=0;orthogonalLoop=1;jettySize=auto;html=1;exitX=0.5;exitY=0;exitDx=0;exitDy=0;entryX=0.5;entryY=1;entryDx=0;entryDy=0;" parent="1" source="DxnIDQMmFqQm4ylsldtP-9" target="DxnIDQMmFqQm4ylsldtP-4" edge="1"><mxGeometry relative="1" as="geometry"/></mxCell><mxCell id="DxnIDQMmFqQm4ylsldtP-9" value="5v from mains" style="rounded=0;whiteSpace=wrap;html=1;" parent="1" vertex="1"><mxGeometry x="540" y="510" width="120" height="60" as="geometry"/></mxCell><mxCell id="DxnIDQMmFqQm4ylsldtP-12" style="edgeStyle=orthogonalEdgeStyle;rounded=0;orthogonalLoop=1;jettySize=auto;html=1;exitX=0.5;exitY=1;exitDx=0;exitDy=0;entryX=0.5;entryY=0;entryDx=0;entryDy=0;startArrow=classic;startFill=1;" parent="1" source="DxnIDQMmFqQm4ylsldtP-11" target="DxnIDQMmFqQm4ylsldtP-2" edge="1"><mxGeometry relative="1" as="geometry"/></mxCell><mxCell id="DxnIDQMmFqQm4ylsldtP-11" value="5v from backup" style="rounded=0;whiteSpace=wrap;html=1;" parent="1" vertex="1"><mxGeometry x="340" y="90" width="120" height="60" as="geometry"/></mxCell><mxCell id="DxnIDQMmFqQm4ylsldtP-14" value="&lt;h1&gt;Software&lt;/h1&gt;&lt;p&gt;InfluxDB&lt;/p&gt;&lt;p&gt;App (push&amp;nbsp;sensors data to db)&lt;/p&gt;&lt;p&gt;App (Tweet)&lt;/p&gt;" style="text;html=1;strokeColor=#666666;fillColor=#f5f5f5;spacing=5;spacingTop=-20;whiteSpace=wrap;overflow=hidden;rounded=0;fontColor=#333333;" parent="1" vertex="1"><mxGeometry x="590" y="120" width="220" height="120" as="geometry"/></mxCell></root></mxGraphModel></diagram></mxfile>